<svg data-name="Layer 1" xmlns="http://www.w3.org/2000/svg" viewBox="0 0 15 15"><defs><clipPath id="a"><path stroke-width="0" fill="none" d="M0 0h15v15H0z"/></clipPath></defs><g clip-path="url(#a)"><path d="M.16 13.87c-.1-.25-.19-.47-.15-.75.01-.09.12-.42.17-.46L9.7 3.12l-6.18-.05c-.5-.15-.77-.53-.82-1.03-.09-.82-.06-1.92.98-2.03h10.33c.54.07.92.45.99.99v10.34c-.12 1.04-1.21 1.07-2.03.99-.57-.06-.95-.38-1.04-.96V5.29L2.4 14.81s-.23.12-.27.13c-.35.13-.71.02-1.03-.15l-.93-.93z" fill="#fff" stroke-width="0"/></g></svg>