<svg data-name="Layer 1" xmlns="http://www.w3.org/2000/svg" viewBox="0 0 21 21"><defs><clipPath id="a"><path fill="none" stroke-width="0" d="M0 0h21v21H0z"/></clipPath></defs><g clip-path="url(#a)"><path d="M11.16 0l1.07.13c4.48.73 8.08 4.45 8.67 8.96.03.25.03.52.09.75-.02.43.03.88 0 1.31-.54 9.24-12.07 13.27-18.32 6.34C-3.18 11.02 1.2.51 9.84 0h1.31zm-.67 3.75c-.33 0-.64.26-.72.58v6.24c0 .27.16.42.35.59 1.12 1.04 2.54 1.93 3.69 2.95a.75.75 0 00.97-1.14l-3.53-2.87V4.32c-.09-.33-.42-.59-.76-.58z" stroke-width="0" fill="#00a5b1"/></g></svg>