<svg id="Layer_1" data-name="Layer 1" xmlns="http://www.w3.org/2000/svg" viewBox="0 0 42 42"><defs><clipPath id="clippath"><path fill="none" stroke-width="0" d="M0 0h42v42H0z"/></clipPath><style>.cls-1{fill:#68b82b;stroke-width:0}</style></defs><g clip-path="url(#clippath)"><path d="M42 17.89C42 8.03 32.58 0 21 0S0 8.03 0 17.89c0 8.84 7.47 16.25 17.56 17.65.68.15 1.62.47 1.85 1.09.21.56.14 1.43.07 1.99 0 0-.25 1.56-.3 1.89-.09.56-.42 2.18 1.82 1.19 2.24-.99 12.09-7.47 16.5-12.8 3.05-3.5 4.5-7.06 4.5-11.01" fill="#fff" stroke-width="0"/><path class="cls-1" d="M16.73 13.12h-1.47c-.22 0-.41.19-.41.43v9.6c0 .23.18.43.41.43h1.47c.22 0 .41-.19.41-.43v-9.6c0-.23-.18-.43-.41-.43zM26.87 13.12H25.4c-.23 0-.41.19-.41.43v5.71l-4.2-5.94s-.02-.03-.03-.04c0 0-.02-.02-.02-.03l-.02-.02s-.01 0-.02-.01h-.01s-.01 0-.02-.01h-.01-.02-.01-1.6c-.22 0-.41.19-.41.43v9.6c0 .23.18.43.41.43h1.47c.23 0 .41-.19.41-.43v-5.7l4.2 5.95s.06.08.1.11c0 0 .02 0 .03.01h.09s.07.01.1.01h1.47c.23 0 .41-.19.41-.43v-9.6c0-.23-.18-.43-.41-.43M13.18 21.18h-4v-7.63c0-.23-.18-.43-.41-.43H7.3c-.22 0-.41.19-.41.43v9.6c0 .11.05.22.11.3.07.07.17.12.28.12h5.88c.22 0 .41-.19.41-.43v-1.55c0-.23-.18-.43-.41-.43M35.01 15.52c.22 0 .41-.19.41-.43v-1.55c0-.24-.18-.43-.41-.43h-5.88c-.11 0-.21.05-.28.12-.07.08-.11.18-.11.3v9.6c0 .11.05.22.11.3.07.07.17.12.28.12h5.88c.22 0 .41-.19.41-.43v-1.55c0-.23-.18-.43-.41-.43h-4v-1.62h4c.22 0 .41-.19.41-.43v-1.55c0-.24-.18-.43-.41-.43h-4v-1.62h4v.02z"/></g></svg>