<svg id="Layer_1" data-name="Layer 1" xmlns="http://www.w3.org/2000/svg" viewBox="0 0 38 38"><defs><clipPath id="clippath"><path stroke-width="0" fill="none" d="M0 0h38v38H0z"/></clipPath><style>.cls-2{stroke-width:0;fill:#fff}</style></defs><g clip-path="url(#clippath)"><path class="cls-2" d="M16.62 20.58h-1.58c-.44 0-.79.35-.79.79s.35.79.79.79h1.58c.44 0 .79-.35.79-.79s-.35-.79-.79-.79zM22.96 20.58h-1.58c-.44 0-.79.35-.79.79s.35.79.79.79h1.58c.44 0 .79-.35.79-.79s-.35-.79-.79-.79zM29.29 20.58h-1.58c-.44 0-.79.35-.79.79s.35.79.79.79h1.58c.44 0 .79-.35.79-.79s-.35-.79-.79-.79zM16.62 28.5h-1.58c-.44 0-.79.35-.79.79s.35.79.79.79h1.58c.44 0 .79-.35.79-.79s-.35-.79-.79-.79zM10.29 20.58H8.71c-.44 0-.79.35-.79.79s.35.79.79.79h1.58c.44 0 .79-.35.79-.79s-.35-.79-.79-.79zM10.29 28.5H8.71c-.44 0-.79.35-.79.79s.35.79.79.79h1.58c.44 0 .79-.35.79-.79s-.35-.79-.79-.79zM22.96 28.5h-1.58c-.44 0-.79.35-.79.79s.35.79.79.79h1.58c.44 0 .79-.35.79-.79s-.35-.79-.79-.79zM29.29 28.5h-1.58c-.44 0-.79.35-.79.79s.35.79.79.79h1.58c.44 0 .79-.35.79-.79s-.35-.79-.79-.79z"/><path class="cls-2" d="M30.88 3.17H28.5V.79c0-.44-.35-.79-.79-.79s-.79.35-.79.79v2.38H11.09V.79c0-.44-.35-.79-.79-.79s-.79.35-.79.79v2.38H7.13C3.2 3.17 0 6.36 0 10.29v20.58c0 3.93 3.2 7.12 7.12 7.12h23.75c3.93 0 7.12-3.2 7.12-7.12V10.29c0-3.93-3.2-7.13-7.12-7.13zM7.13 4.75h23.75c3.06 0 5.54 2.49 5.54 5.54v2.38H1.58v-2.38c0-3.06 2.49-5.54 5.54-5.54zm23.75 31.67H7.12c-3.06 0-5.54-2.49-5.54-5.54V14.25h34.83v16.62c0 3.06-2.49 5.54-5.54 5.54z"/></g></svg>