<svg width="94" height="81" fill="none" xmlns="http://www.w3.org/2000/svg"><g clip-path="url(#clip0_42_5603)" fill="#9395D7"><path d="M0 72.819c.157-.184.624-.725.825-.725h5.407v-8.626c0-.498.521-2.169.73-2.727 1.988-5.38 9.016-6.806 13.58-9.288l.703-2.118c-2.322-1.734-4.33-4.102-5.439-6.79-.362-.877-.639-2.583-.957-3.182-.11-.208-.87-.43-1.193-.679-1.738-1.351-2.284-3.641-1.518-5.679.208-.548.806-1.15.872-1.496.206-1.075-.088-2.79.007-3.988.77-9.623 12.058-14.892 20.81-14.264 3.16.226 7.416 1.633 7.233 5.456 1.478-.092 2.913.623 3.844 1.73 2.223 2.641.504 7.735 1.11 10.886.1.517 1.072 1.453 1.236 2.407.272 1.586-.03 3.204-1.144 4.41-.463.5-1.565.962-1.7 1.13-.122.15-.704 2.438-.93 2.983-1.075 2.615-2.583 4.408-4.613 6.327-.377.356-.965.422-.92 1.07.019.308.668 1.826.927 2.006 3.309 1.671 10.691 3.9 12.43 7.296.654 1.276-.328 2.244-1.677 1.844-.248-.073-1.558-1.703-2.084-2.11-1.438-1.11-3.252-1.691-4.827-2.574v3.813c3.27.524 3.855 4.218 3.465 6.974-.247 1.749-2.172 1.674-2.512.524-.438-1.487.855-4.832-1.775-5.14-4.376-.514-1.195 5.208-3.387 5.918-2.199.711-1.788-3.209-1.665-4.56.179-1.96 1.481-3.262 3.318-3.825v-4.854c-.75-.26-1.76-1.106-2.495-.674l-7.221 7.374c-.4.388-1.117.378-1.58.09l-7.603-7.552c-.544-.242-1.513.616-2.167.667l.005 5.846c2.324 1.201 3.352 4.313 1.325 6.276-4.31 4.17-9.815-3.704-3.92-6.244v-4.63c-2.474 1.26-5.537 2.272-6.882 4.894-.264.517-.817 2.133-.817 2.64v8.443h36.017c.245 0 .848.968.823 1.35-.024.38-.661 1.193-1.006 1.193H2.566v3.813h41.515c1.261 0 1.712 2.331.01 2.552L.593 80.863 0 80.27v-7.452zM43.44 30.15v-7.173c0-.063-.515-.883-.632-1.009-1.278-1.339-3.188-.15-4.055-1.247-.918-1.16.828-2.93-1.842-4.167-4.657-2.159-13.183.257-17.018 3.432-1.822 1.51-4.312 4.922-4.312 7.348v2.814l1.295-.078c.385-3.076 2.598-5.448 5.764-5.73 2.082-.184 4.472 0 6.595-.186 2.373-.211 6.555-1.46 8.658-.764 3.113 1.028 3.12 4.1 3.926 6.736l1.625.024h-.004zm-26.63 7.134c.213.177 1.33 4.233 1.817 5.191 6.026 11.828 22.07 7.428 23.55-4.953.342-.512 1.118-.47 1.615-.76 1.854-1.076.968-4.552-1.503-4.03-.625.133-.96.727-1.834.47-1.572-.466-1.127-6.436-3.25-7.321-1.241-.517-6.092.665-7.791.815-2.3.204-7.097-.32-8.747 1.09-1.562 1.333-.95 3.046-1.244 4.627-.326 1.75-2.485.093-3.56.287-1.73.313-2.055 3.131-.453 4.063.409.238 1.082.257 1.398.521h.002zm12.52 21.553l.458-.177 6.034-6.006c.56-.614.017-1.276-.257-1.914-3.916 1.598-8.216 1.615-12.104-.075l-.28 1.81c1.908 1.983 3.975 3.827 5.88 5.811.147.153.255.33.267.548l.002.003zm-10.407 5.516c0-.662-.54-1.198-1.21-1.198-.668 0-1.209.536-1.209 1.198 0 .662.541 1.198 1.21 1.198.668 0 1.21-.536 1.21-1.198z"/><path d="M83.24 35.388c3.794.31 6.34 3.719 4.47 7.292-.946 1.805-2.447 2.452-4.415 2.71.034 3.82-1.844 7.105-4.998 9.21l-.042 2.855c4.986 2.433 13.037 4.23 15.05 10.001.81 2.324.793 9.555.55 12.182-.053.59-.105 1.043-.729 1.274l-44.468.087c-.872.005-1.27-.334-1.369-1.186-.277-2.353-.223-9.994.421-12.117 1.854-6.105 10.26-7.585 15.133-10.43v-2.663c-3.151-2.092-5.127-5.361-5-9.211-1.94-.22-3.742-1.04-4.604-2.884-1.623-3.472 1.017-6.955 4.663-7.11-.595-5.08 1.601-10.043 6.62-11.872 2.513-.916 8.978-.953 11.537-.174 5.267 1.603 7.762 6.806 7.182 12.041v-.005zM67.23 25.477c-3.455.41-6.448 3.282-6.749 6.75-.247 2.844-.392 13.194.2 15.613.736 2.995 3.78 5.336 6.855 5.557 5.01.359 11.215.369 12.84-5.45.672-2.402.493-12.457.28-15.356-.524-7.114-7.677-7.796-13.429-7.114h.003zm-9.308 17.2V38.23c-.34-.483-1.635.189-1.954.514-1.471 1.509-.188 4.267 1.954 3.932v.003zm25.295 0c3.387.095 3.338-4.718 0-4.538v4.539zm-7.515 12.89c-.612.234-1.26.333-1.917.372-1.95.117-4.863.14-6.798 0a4.73 4.73 0 01-1.552-.369v3.178c0 .172.695 1.026 1.014.995 2.527-.182 5.409.257 7.887.014.51-.048 1.364-.497 1.364-1.009V55.57l.002-.002zM49.855 69.46c-.367 2.714.275 6.19 0 8.987h7.515v-9.169c0-.05.644-.681.737-.725.652-.299 1.83.33 1.83.907v8.987h21.261v-9.169c0-.05.645-.681.738-.725.65-.299 1.829.33 1.829.907v8.987h7.515v-8.626c0-3.408-3.94-5.491-6.533-6.782-.808-.403-6.54-3.003-6.915-2.947-.549.965-1.203 1.797-2.351 2.069-1.249.298-8.21.325-9.577.114-.36-.056-1.07-.42-1.374-.636-.578-.412-1.1-1.562-1.665-1.462-4.02 2.037-12.3 4.039-13.01 9.283zM61.953 16.713v4.45c0 .603-1.077 1.576-1.746 1.197l-5.774-5.552c-2.867-.323-7.882.897-8.252-3.265-.308-3.464.235-7.38.02-10.892C46.556 1.34 47.41.473 48.706.05L79.466 0c1.558.065 2.97 1.31 3.184 2.838.293 2.11.261 8.534.017 10.698-.13 1.14-.813 2.19-1.852 2.704-.18.09-1.26.47-1.356.47H61.953v.003zm-2.566 1.271v-3.177c0-.051.44-.44.553-.541l18.973-.09c.86-.11 1.116-.354 1.197-1.174.213-2.132.238-7.355-.007-9.456-.04-.337-.127-.844-.492-.965l-30.36.007-.403.325v10.715c.23.3.553.473.928.533 1.62.262 3.768-.206 5.45.049.532.158 2.856 2.933 3.61 3.505.184.14.23.35.551.272v-.003zM25.793 41.625c1.386-.4 1.594.67 2.564 1.196 2.656 1.44 2.894-1.458 4.71-1.23 1.24.155 1.218 1.322.571 2.178-.994 1.317-3.117 2.18-4.755 1.977-1.4-.172-4.207-1.9-3.732-3.486.069-.225.414-.57.642-.635zM22.677 32.914c1.266-.257 2.591.054 3.448 1.043.808.934 1.48 3.236-.206 3.452-1.834.233-1.126-2.01-2.365-2.008-1.332 0-.296 2.149-2.201 2.03-2.187-.133-1.002-4.041 1.324-4.514v-.003zM34.779 32.918c1.74-.296 3.296.34 3.93 2.01.387 1.024.43 2.553-1.036 2.5-1.663-.059-.813-2.029-2.023-2.029-1.21 0-.53 2.244-2.367 2.011-2.119-.269-.82-4.097 1.493-4.49l.003-.002z"/><path d="M54.934 7.126c.82-.237 3.25-.274 3.499.82.401 1.766-1.702 1.846-2.97 1.67-1.707-.24-1.692-2.152-.53-2.49zM62.553 9.218c-.597-.594-.333-1.868.446-2.091.722-.209 3.232-.25 3.497.635.668 2.247-3.1 2.293-3.943 1.456zM70.616 9.223c-.53-.568-.35-1.866.448-2.096.722-.209 3.232-.25 3.497.635.68 2.285-3.2 2.259-3.945 1.46z"/></g><defs><clipPath id="clip0_42_5603"><path fill="#fff" d="M0 0h94v81H0z"/></clipPath></defs></svg>