<svg width="71" height="71" fill="none" xmlns="http://www.w3.org/2000/svg"><g clip-path="url(#clip0_42_5613)" fill="#9395D7"><path d="M0 14.08c.32-.48.603-.626 1.177-.693 3.247-.374 7.194.272 10.517.01 1.565.218 1.025 2.207.287 2.207H2.217v53.182h40.58V53.898c0-.154.36-.5.547-.563 1.032-.346 1.594.28 1.67 1.255-.307 4.795.405 10.089.004 14.823-.065.754-.18 1.17-.836 1.588H0V14.079z"/><path d="M68.697 2.306c-.507-.045-1.092.068-1.584-.008-1.227-.19-1.28-2.046.128-2.21.93-.11 3.54-.326 3.665.911-.181 3.612.27 7.5.013 11.078-.368 5.115-4.448 9.378-9.555 9.904.578 10.211-3.358 21.636-12.262 27.28-7.468 4.734-20.11 5.076-22.303-5.542-2.322-11.248 9.1-17.1 18.493-12.123 2.32 1.229 7.167 4.92 8.586 7.064.64.968-.353 2.062-1.35 1.629-.543-.235-2.193-2.186-2.804-2.737-4.533-4.089-10.537-7.71-16.61-4.28-7.263 4.102-4.952 16.079 3.26 16.937 7.803.816 15.258-4.337 19.05-10.83 3.117-5.337 3.922-11.276 3.716-17.404-5.414-.514-9.364-4.934-9.7-10.313-.216-3.478.12-7.24.075-10.744.113-.487.49-.75.98-.818.622-.087 2.987-.1 3.559.028.75.168.978 1.186.521 1.798-.044.06-.457.38-.488.38h-2.424v9.624c0 4.874 5.275 8.454 9.89 7.812 3.23-.45 7.148-4.01 7.148-7.395V2.306h-.004z"/><path d="M38.92 19.48H6.095v45.426H38.92v-10.18c0-.682 1.965-1.158 2.207.424-.265 3.37.385 7.36.01 10.655-.066.572-.278.998-.79 1.288l-35.432.032a1.067 1.067 0 01-.974-.689V17.95l.624-.624 35.642-.033c.624.204.859.664.93 1.286.299 2.655-.214 5.858-.014 8.574-.096.805-.792 1.443-1.613 1.084-.119-.052-.59-.466-.59-.518v-8.24zM63.597 51.864c3.956-.923 7.543 2.392 6.559 6.398-1.24 5.042-8.64 5.249-10.082.239-.666-2.311.103-3.923 1.54-5.69a76.182 76.182 0 00-2.58-4.07c-.672-1-2.163-2.681-2.602-3.632-.668-1.449.798-2.267 1.81-1.257.829.828 2.022 2.739 2.729 3.78a65.45 65.45 0 012.626 4.232zm4.494 5.13a3.05 3.05 0 10-6.102 0 3.05 3.05 0 106.102 0zM15.888 9.537h13.237c.15.043.425.318.514.455.255.389 1 3.332 1.071 3.913.117.942.06 1.53-.999 1.699l-14.898-.065c-.554-.242-.718-.653-.676-1.234.043-.573.798-3.565 1.029-4.105.146-.34.355-.565.722-.663zm12.365 3.848c-.12-.438-.139-1.57-.622-1.663l-10.511-.007-.5 1.67h11.635-.002z"/><path d="M33.033 15.602c-.055-.017-.485-.467-.542-.566-.426-.742.042-1.457.827-1.642 3.312.276 7.29-.394 10.52-.01.935.11 1.11.752 1.18 1.59.325 3.841-.24 8.147-.02 12.038-.042.855-.713 1.619-1.61 1.227-.119-.052-.59-.467-.59-.518V15.81l-.208-.207h-9.557v-.002zM34.724 58.912c-.187.187-.714.322-.994.324l-22.586-.004c-1.496-.072-1.632-2.05-.14-2.222h22.998c.951-.015 1.34 1.28.72 1.904l.002-.002zM11.188 25.748l17.553-.037c1.864.207 1.755 2.063.419 2.218l-18.63-.074c-1.015-.766-.54-1.994.658-2.107zM40.816 33.924c.198.235.298.816.324 1.132.342 4.076-.27 8.624-.002 12.75-.026 1.391-2.054 1.719-2.222.276l-.006-13.583c.072-.895 1.353-1.228 1.906-.575zM10.293 35.5c-.692-.635-.248-1.882.715-1.899l12.752-.003c1.304.172 1.167 2.17-.143 2.226-3.97-.28-8.424.36-12.336.003-.322-.03-.747-.107-.988-.33v.003zM10.294 41.683c.24-.22.666-.3.988-.33 3.913-.357 8.365.285 12.336.004 1.31.056 1.447 2.054.142 2.226l-12.752-.004c-.964-.016-1.406-1.264-.714-1.898v.002zM10.625 49.283l13.132-.031c1.326.154 1.347 2.022-.418 2.218-3.745.417-8.227-.31-12.05 0-1.284-.075-1.852-1.456-.664-2.187zM43.73 35.02c1.053-.106 1.23.884 1.29 1.696.168 2.337.281 7.61-.019 9.827-.214 1.59-2.07 1.687-2.21.157-.313-3.432.253-7.333 0-10.817-.01-.466.529-.823.94-.864z"/></g><defs><clipPath id="clip0_42_5613"><path fill="#fff" d="M0 0h71v71H0z"/></clipPath></defs></svg>