<svg width="99" height="65" fill="none" xmlns="http://www.w3.org/2000/svg"><g clip-path="url(#clip0_42_5191)" fill="#9395D7"><path d="M0 54.746c.872-2.905 3.693-4.448 6.578-3.184l11.503-11.326h15.954v2.902H19.242l-5.51 5.32v13.638h71.356V26.405c.727-.603 1.984-.161 2.9-.291v38.884H10.83V51.457l-2.098 2.074c.345 1.62.64 2.537-.119 4.123C6.725 61.606.96 60.677 0 56.484v-1.74.002zm6.183.882a1.628 1.628 0 10-3.256 0 1.628 1.628 0 003.256 0z"/><path d="M87.986 0v16.25c.45-.02 2.242-1.847 2.282-2.058.053-.265-.296-.771-.333-1.15-.415-4.203 3.937-7.03 7.314-4.415 2.874 2.223 2.048 6.798-1.338 7.912-1.489.49-2.26-.013-3.666-.002L81.119 27.665H68.066v-2.902h11.893l5.124-5.32V2.902H13.73v38.69h-2.9V0h77.157zm8.087 12.205a1.632 1.632 0 10-3.263 0 1.632 1.632 0 003.263 0z"/><path d="M47.765 52.618c-2.403-.006-4.778-.425-6.756-1.85-5.672-4.085-3.46-11.166-3.868-17.18-1.635-.651-2.865-1.923-3.084-3.722-.28-2.294-.363-11.947.064-14.015.385-1.869 2.274-3.241 4.092-3.45 7.167.368 14.937-.56 22.032-.03 2.478.187 4.31 1.578 4.544 4.16.389 4.29-.295 9.18-.026 13.533-.372 1.727-1.395 3.008-3.09 3.52-.176 3.324.277 6.95.02 10.238-.442 5.63-5.15 9.123-10.644 8.796V39.754c0-.617-1.027-1.27-1.643-1.27-.616 0-1.643.653-1.643 1.27v12.864h.002zm7.929-21.666h5.124c.338 0 1.122-1.014 1.072-1.442-.362-4.038.455-8.837-.006-12.78-.126-1.085-.849-1.362-1.83-1.457-6.782.494-14.416-.624-21.097.002-.93.087-1.897.423-2.033 1.448.363 3.977-.45 8.707.006 12.589.064.552.736 1.64 1.261 1.64h5.125v2.901h-3.288v10.35c0 .162.483 1.458.605 1.718.75 1.591 2.484 3.063 4.23 3.41V39.174c0-.09.441-1.002.544-1.196 1.678-3.198 6.322-3.198 8 0 .103.196.545 1.107.545 1.196v10.157c1.736-.41 3.098-1.352 3.968-2.898.21-.372.866-1.714.866-2.035V33.855h-3.094v-2.901l.002-.002zM81.993 6.191h-3.095v2.902h3.095V6.191zM78.899 9.287h-3.094v2.902h3.094V9.287zM20.112 55.908c-.128.917.312 2.175-.29 2.902h-2.804v-2.902h3.094zM26.3 55.908c-.128.917.311 2.175-.291 2.902h-2.804v-2.902H26.3zM32.487 55.908c-.128.917.312 2.175-.29 2.902h-2.804v-2.902h3.094z"/></g><defs><clipPath id="clip0_42_5191"><path fill="#fff" d="M0 0h99v65H0z"/></clipPath></defs></svg>