<svg width="77" height="75" fill="none" xmlns="http://www.w3.org/2000/svg"><g clip-path="url(#clip0_42_5181)" fill="#9395D7"><path d="M77 34.917c-1.037 3.294-1.24 7.305-5.576 7.528l-1.036 3.474c.343.664.968 1.013 1.329 1.702.907 1.736.335 4.375.438 6.31-2.173 6.576-4.353 13.192-6.874 19.621-.697.838-1.522 1.349-2.622 1.45l-60.707-.016c-.783-.195-1.58-.892-1.785-1.688-.204-.795-.212-4.293-.036-5.14.227-1.092 1.217-1.727 2.257-1.82 4.388-.393 9.363.292 13.814.022 1.7.205 2.728 1.668 3.774 2.868h7.438V51.314c-1.526-.067-2.799-.456-4.103-1.245-1.42-.858-6.487-5.529-7.469-6.877-3.22-4.428 2.179-10.425 7.286-6.602 1.485 1.114 2.754 2.576 4.284 3.64.37-3.104-1.373-5.931-4.583-6.221-1.669-.15-6.707-.2-8.157.255-1.608.505-2.73 1.982-3.02 3.628l-1.7 24.544c-.29 1.268-2.298 1.233-2.232-.73.27-8.031 1.423-16.079 1.678-24.118.217-1.35.835-2.51 1.636-3.581-1.919.271-3.643-.706-4.045-2.671.26-4.496.313-9.023.582-13.505.352-5.847 1.508-9.986 8.191-10.4 2.23-.138 9.6-.292 11.393.345 1.464.519 2.295 1.884 2.511 3.382-.226 3.95.308 8.243.009 12.149-.261 3.38-2.92 5.93-6.152 6.461l.133 2.038c2.389.493 4.439 1.973 5.392 4.27.195.466.623 1.658.623 2.102v2.657c2.523-.807 5.464-1.196 7.931-2.083.3-.107 2.755-1.34 2.588-1.56-.722-.297-2.768-.636-3.077-1.37a1.173 1.173 0 01.933-1.635l11.46 3.764L51.76 29.3h-5.035c-.095 0-1.307-.52-1.478-.632-.921-.588-1.756-1.854-1.887-2.953-.417-3.525.28-7.77-.02-11.371.165-1.422 1.777-1.607 2.226-.268l.047 11.339c.076.73.596 1.2 1.228 1.49h24.565l1.104-1.01.138-21.87c-.028-.722-.505-1.282-1.116-1.607l-24.47-.105c-2.46.45-1.096 5.03-1.496 6.839-.26 1.182-2.015 1.154-2.212-.128-.177-1.144-.108-5.368.263-6.395C44.145 1.17 45.394.292 46.875 0l24.633.014c1.809.371 3.08 1.73 3.377 3.572-.364 7.057.54 14.71.024 21.698-.1 1.36-.699 2.54-1.819 3.324-.69.483-1.825.391-1.642 1.3 2.602-.726 4.92.951 5.559 3.492v1.52L77 34.916zM16.44 31.73v-3.263l3.626-10.152c.404-.518 2.412-.761 3.239-1.132 2.1-.94 4.519-3.509 4.069-5.987-.17-.94-.96-1.385-1.845-1.476-2.515-.258-7.2-.185-9.77-.009-3.03.21-5.435 1.91-5.763 5.111-.487 4.79-.596 10.459-.774 15.308-.015.373.012 1.6.532 1.6h6.687zm10.97-8.122v-6.604c-.9.781-1.825 1.62-2.905 2.152-.853.422-1.795.588-2.666.95l-3.146 8.815v2.81h2.556v-3.114c0-1.168 2.28-1.085 3.198-1.476.518-.221 1.006-.621 1.461-.954-1.222.18-2.192-1.267-1.196-2.119.616-.527 2.54.06 2.7-.46h-.002zm41.777 5.692H59.72c1.224.978 1.973 2.317 1.97 3.93 3.073.396 4.466 3.376 2.703 5.992l1.486 1.614c1.229-3.05 2.222-6.439 2.995-9.651.149-.621.368-1.232.313-1.887v.002zM55.512 46.757h4.057c.096-2.47.938-2.054 2.61-2.752.337-.14 2.198-1.128 2.196-1.422-.562-.734-2.684-2.583-2.828-3.376-.231-1.262 1.79-1.144 1.297-2.817-.312-1.057-2.7-.933-3.237-1.511-.536-.578-.126-1.477-.22-2.124-.33-2.235-3.706-2.271-5.306-3.141l-1.737 5.969c1.23.742 3.993.782 4.334 2.482.273 1.359-1.319 3.32-2.52 3.839-.298.426 1.549.913 1.796 1.144.81.76-.26 2.766-.444 3.711l.002-.002zm14.476-7.337a2.164 2.164 0 003.49-.548c.28-.556 1.266-4.058 1.28-4.64.053-2.158-2.939-3.11-4-1.146-.314.58-1.173 3.517-1.257 4.194-.09.734-.06 1.588.487 2.137v.003zm-32.217 1.727l-9.686 2.434c-.374-.012-.619-.274-.896-.472-1.526-1.085-5.135-4.98-6.569-5.358-2.065-.548-3.744 1.012-3.392 3.125.158.95 1.513 2.077 2.214 2.77 1.245 1.231 3.144 3.087 4.527 4.08 1.383.994 2.455 1.455 4.164 1.051l10.993-4.153-1.355-3.479v.002zm16.538-2.433l-2.553-.76c-.107.883.329 1.636.602 2.427.815-.316 1.417-.992 1.951-1.67v.003zm-11.158-.434l-3.399 2.024 1.568 3.263c.532-.288 3.415-1.497 3.496-1.913-.217-.576-.934-3.117-1.323-3.33a.39.39 0 00-.342-.042v-.002zM29.664 50.554v16.699c.512-.22 1.677-.91 2.179-.91h3.682v-3.114c0-.152.359-1 .475-1.19.964-1.556 4.774-1.302 6.364-2.073l3.92-10.463c1.563-2.486 4.223-2.955 6.96-2.76l.441-2.241c-1.807-.744-2.869-2.324-3.826-3.95l-3.363-1.232c.578 1.714 1.096 3.23-.612 4.468-.958.696-3.7 1.996-4.873 2.517-3.613 1.604-7.667 2.752-11.347 4.249zm38.606-5.33l1.02-3.405-.93-.828c-1.409 2.537-3.515 4.823-6.44 5.462-.16-.022-.124.316-.096.38.054.12 1.79.865 2.102.987.642-1.7 2.577-2.659 4.346-2.596h-.002zm-9.903 27.492h4.432c.406 0 .797-.841.942-1.174 2.411-5.624 3.929-12.166 6.16-17.916-.061-1.882.862-6.212-2.135-6.116-2.437.077-2 2.894-2.102 4.569L58.37 72.716h-.002zm-1.803-23.681h-5.937c-.79 0-2.284 1.164-2.561 1.967l-3.224 8.962h8.415l3.307-10.93zm-.452 9.106l4.35 1.46.233-.083 2.699-7.73c.034-2.666-3.72-3.873-4.885-1.32-1.038 2.274-1.465 5.308-2.397 7.673zM37.78 63.304v3.036h19.61c1.39 0 2.136-3.458 2.473-4.545l-4.5-1.527c-.161.718-.254 1.85-1.139 1.963-3.648.25-7.655-.302-11.258.012-1.677.146-3.492.883-5.188 1.061h.002zm-10.67 8.198h-7.74c-.824 0-2.633-2.884-3.306-2.884H2.316v4.098H27.11v-1.214h-.002zm30.356-2.884H32.144c-1.37 0-3.656 2.701-2.48 4.023l26.077.077c.215 0 .25-.105.347-.257.562-.897.89-2.813 1.38-3.843h-.003z"/><path d="M59.266 20.797l-.31.093c-.943 2.972-4.161 4.896-6.072 1.576-.424-3.664-1.59-7.692-1.861-11.326-.346-4.64 4.701-6.934 8.042-3.87.75-.375 1.243-.96 2.09-1.188 3.423-.925 6.32 1.517 6.057 5.058-.213 2.86-1.04 7.771-1.679 10.6-.267 1.187-.783 2.069-2.05 2.333-2.5.517-3.36-1.32-4.217-3.272v-.004zm3.892 1.045l1.825-11.147c-.006-1.936-1.855-3.113-3.595-2.253-.765.377-1.434 1.643-2.343 1.594-.813-.044-1.63-1.466-2.506-1.738-1.702-.525-3.175.48-3.294 2.254l1.833 11.29c.279.069.58.055.821-.122.5-.363 1.703-3.166 2.315-3.884a1.171 1.171 0 011.807 0c.548.643 2.02 3.831 2.509 3.996.147.048.514.085.628.012v-.002zM19.551 59.086c.34-.1 4.56-.1 4.896 0 .98.29 1.018 2.012-.43 2.237-.644.1-3.575.112-4.165-.022-1.144-.26-1.267-1.93-.301-2.213v-.002z"/></g><defs><clipPath id="clip0_42_5181"><path fill="#fff" d="M0 0h77v75H0z"/></clipPath></defs></svg>