<svg width="23" height="23" fill="none" xmlns="http://www.w3.org/2000/svg"><g clip-path="url(#clip0_42_5587)"><path d="M6.785 9.315l-1.61 1.61L10.35 16.1l11.5-11.5-1.61-1.61-9.89 9.89-3.565-3.565zM20.7 11.5c0 5.06-4.14 9.2-9.2 9.2s-9.2-4.14-9.2-9.2 4.14-9.2 9.2-9.2c.92 0 1.725.115 2.53.345l1.84-1.84C14.49.345 12.995 0 11.5 0 5.175 0 0 5.175 0 11.5S5.175 23 11.5 23 23 17.825 23 11.5h-2.3z" fill="#9395D7"/></g><defs><clipPath id="clip0_42_5587"><path fill="#fff" d="M0 0h23v23H0z"/></clipPath></defs></svg>